# Blender v2.83.1 OBJ File: ''
# www.blender.org
mtllib Cube.mtl
o Cube
v 1.544760 -0.782898 -0.028030
v 0.585987 -0.179078 1.620046
v 1.116062 0.957594 -0.915106
v 0.157289 1.561414 0.732970
v -0.157289 -1.561414 -0.732970
v -1.116062 -0.957594 0.915106
v -0.585987 0.179078 -1.620046
v -1.544760 0.782898 0.028030
vn 0.4794 -0.3019 -0.8240
vn -0.2143 0.8702 -0.4435
vn -0.8510 -0.3893 -0.3525
vn -0.4794 0.3019 0.8240
vn 0.8510 0.3893 0.3525
vn 0.2143 -0.8702 0.4435
usemtl Material
s off
f 5//1 3//1 1//1
f 3//2 8//2 4//2
f 7//3 6//3 8//3
f 2//4 8//4 6//4
f 1//5 4//5 2//5
f 5//6 2//6 6//6
f 5//1 7//1 3//1
f 3//2 7//2 8//2
f 7//3 5//3 6//3
f 2//4 4//4 8//4
f 1//5 3//5 4//5
f 5//6 1//6 2//6
